<svg xmlns="http://www.w3.org/2000/svg" viewBox="0 0 128 128" role="img" aria-label="Banana trap world visual">
  <defs>
    <radialGradient id="bananaWorldShadow" cx="50%" cy="52%" r="45%">
      <stop offset="0" stop-color="#000000" stop-opacity="0.38"/>
      <stop offset="1" stop-color="#000000" stop-opacity="0"/>
    </radialGradient>
    <linearGradient id="bananaWorldPeel" x1="26" y1="22" x2="93" y2="105" gradientUnits="userSpaceOnUse">
      <stop offset="0" stop-color="#fff7aa"/>
      <stop offset="0.48" stop-color="#ffd84a"/>
      <stop offset="1" stop-color="#e89b16"/>
    </linearGradient>
    <linearGradient id="bananaWorldInner" x1="34" y1="35" x2="86" y2="93" gradientUnits="userSpaceOnUse">
      <stop offset="0" stop-color="#fffbe0"/>
      <stop offset="1" stop-color="#ffe686"/>
    </linearGradient>
    <linearGradient id="bananaWorldStem" x1="54" y1="82" x2="72" y2="112" gradientUnits="userSpaceOnUse">
      <stop offset="0" stop-color="#8a5420"/>
      <stop offset="1" stop-color="#3b2210"/>
    </linearGradient>
  </defs>
  <ellipse cx="64" cy="76" rx="45" ry="34" fill="url(#bananaWorldShadow)"/>
  <path d="M63 66c-19 9-34 11-49 5 8 14 25 22 43 13 7-3 10-10 6-18Z" fill="url(#bananaWorldPeel)"/>
  <path d="M68 64c17 13 28 25 33 42 9-13 6-33-10-44-7-5-16-4-23 2Z" fill="url(#bananaWorldPeel)"/>
  <path d="M68 58c3-21 10-36 23-47-16 0-31 11-34 30-1 8 3 15 11 17Z" fill="url(#bananaWorldPeel)"/>
  <path d="M60 61c-9-18-19-30-35-38-4 16 4 33 21 42 7 4 14 2 14-4Z" fill="url(#bananaWorldPeel)"/>
  <path d="M57 58c6 8 15 9 22 2 4 11-1 24-12 29-10-7-15-19-10-31Z" fill="url(#bananaWorldInner)"/>
  <path d="M58 79c-4 9-3 21 4 33l13-4c-7-9-9-18-5-26Z" fill="url(#bananaWorldStem)"/>
  <path d="M31 64c11 3 21 1 30-6" fill="none" stroke="#fff8c6" stroke-width="5" stroke-linecap="round"/>
  <path d="M75 60c8 7 13 16 16 28" fill="none" stroke="#fff8c6" stroke-width="5" stroke-linecap="round"/>
  <path d="M66 50c2-11 7-21 15-29" fill="none" stroke="#fff8c6" stroke-width="5" stroke-linecap="round"/>
  <path d="M57 53c-6-10-13-17-23-23" fill="none" stroke="#fff8c6" stroke-width="5" stroke-linecap="round"/>
  <circle cx="65" cy="64" r="8" fill="#ffd84a" stroke="#c88914" stroke-width="3"/>
</svg>
