<svg xmlns="http://www.w3.org/2000/svg" viewBox="0 0 64 64" role="img" aria-label="Banana item icon">
  <defs>
    <linearGradient id="bananaIconPeel" x1="18" y1="10" x2="47" y2="54" gradientUnits="userSpaceOnUse">
      <stop offset="0" stop-color="#fff5a8"/>
      <stop offset="0.45" stop-color="#ffd54f"/>
      <stop offset="1" stop-color="#f0a91c"/>
    </linearGradient>
    <linearGradient id="bananaIconStem" x1="14" y1="48" x2="28" y2="56" gradientUnits="userSpaceOnUse">
      <stop offset="0" stop-color="#7a4a1b"/>
      <stop offset="1" stop-color="#3b2410"/>
    </linearGradient>
  </defs>
  <rect width="64" height="64" rx="13" fill="#162028"/>
  <circle cx="32" cy="32" r="25" fill="#263441"/>
  <path d="M16 46c15 5 31-4 38-20 1-3-1-6-4-7-5 15-19 25-34 23-3 0-5 2-5 5 0 2 2 4 5 4Z" fill="url(#bananaIconPeel)"/>
  <path d="M19 38c10 3 22-5 29-17" fill="none" stroke="#fff8c6" stroke-width="4" stroke-linecap="round"/>
  <path d="M12 45c0 5 3 9 8 11l6-5c-4-1-7-4-8-8Z" fill="url(#bananaIconStem)"/>
  <path d="M46 19c3-2 7-2 10 1-2 2-4 4-7 5Z" fill="#5b3717"/>
  <path d="M31 50c6-1 13-5 18-12" fill="none" stroke="#c88914" stroke-width="3" stroke-linecap="round"/>
</svg>
