<svg xmlns="http://www.w3.org/2000/svg" viewBox="0 0 128 128" role="img" aria-label="Shell projectile world visual">
  <defs>
    <radialGradient id="shellWorldDome" cx="34%" cy="25%" r="70%">
      <stop offset="0" stop-color="#ecfbff"/>
      <stop offset="0.48" stop-color="#9ad7ff"/>
      <stop offset="1" stop-color="#236f9f"/>
    </radialGradient>
    <linearGradient id="shellWorldRim" x1="19" y1="74" x2="109" y2="92" gradientUnits="userSpaceOnUse">
      <stop offset="0" stop-color="#f6fdff"/>
      <stop offset="0.5" stop-color="#5db5e8"/>
      <stop offset="1" stop-color="#154f78"/>
    </linearGradient>
    <radialGradient id="shellWorldShadow" cx="50%" cy="52%" r="45%">
      <stop offset="0" stop-color="#000000" stop-opacity="0.34"/>
      <stop offset="1" stop-color="#000000" stop-opacity="0"/>
    </radialGradient>
  </defs>
  <ellipse cx="64" cy="85" rx="48" ry="31" fill="url(#shellWorldShadow)"/>
  <path d="M17 75c4-34 27-54 61-49 20 3 31 20 34 47-11 15-29 23-52 23-22 0-36-7-43-21Z" fill="url(#shellWorldDome)"/>
  <path d="M17 75c17 12 75 12 95-2 1 21-20 34-52 34-27 0-44-12-43-32Z" fill="url(#shellWorldRim)"/>
  <path d="M40 83c1-27 16-46 36-57M66 90c0-26 7-45 20-57" fill="none" stroke="#f7fdff" stroke-width="7" stroke-linecap="round" opacity="0.72"/>
  <path d="M27 72c20 12 62 12 82-2" fill="none" stroke="#0d3148" stroke-width="6" stroke-linecap="round" opacity="0.56"/>
  <path d="M35 96c17 8 42 8 59-3" fill="none" stroke="#c6efff" stroke-width="7" stroke-linecap="round"/>
  <circle cx="42" cy="65" r="7" fill="#f7fdff" opacity="0.72"/>
  <circle cx="71" cy="55" r="7" fill="#f7fdff" opacity="0.62"/>
</svg>
