<svg xmlns="http://www.w3.org/2000/svg" viewBox="0 0 64 64" role="img" aria-label="Shell item icon">
  <defs>
    <radialGradient id="shellIconDome" cx="35%" cy="26%" r="68%">
      <stop offset="0" stop-color="#e4f8ff"/>
      <stop offset="0.46" stop-color="#9ad7ff"/>
      <stop offset="1" stop-color="#2b7fb3"/>
    </radialGradient>
    <linearGradient id="shellIconRim" x1="12" y1="38" x2="52" y2="48" gradientUnits="userSpaceOnUse">
      <stop offset="0" stop-color="#effaff"/>
      <stop offset="0.52" stop-color="#65b9ea"/>
      <stop offset="1" stop-color="#1d5f8b"/>
    </linearGradient>
  </defs>
  <rect width="64" height="64" rx="13" fill="#15212a"/>
  <circle cx="32" cy="32" r="25" fill="#243746"/>
  <path d="M13 39c2-17 13-27 29-25 10 2 16 10 18 24-5 7-13 11-24 11-11 0-19-3-23-10Z" fill="url(#shellIconDome)"/>
  <path d="M13 39c8 5 37 5 47-1 0 10-10 17-25 17-13 0-22-6-22-16Z" fill="url(#shellIconRim)"/>
  <path d="M24 43c1-13 8-23 18-29M36 47c0-13 3-23 10-30" fill="none" stroke="#f7fdff" stroke-width="3" stroke-linecap="round" opacity="0.75"/>
  <path d="M18 38c9 5 29 5 39-1" fill="none" stroke="#10364c" stroke-width="3" stroke-linecap="round" opacity="0.58"/>
  <path d="M22 50c7 3 19 3 27-1" fill="none" stroke="#b8ecff" stroke-width="3" stroke-linecap="round"/>
  <circle cx="25" cy="34" r="3" fill="#f7fdff" opacity="0.72"/>
  <circle cx="38" cy="29" r="3" fill="#f7fdff" opacity="0.62"/>
</svg>
